<svg xmlns="http://www.w3.org/2000/svg" width="16" height="16" fill="currentColor" class="bi inline" viewBox="0 0 16 16">
 <path d="m279.47 243.96c1.8344 1.3772 3.8073 4.1695 4.5318 5.6679 0.72448-1.4984 2.6974-4.2907 4.5318-5.6679 1.3236-0.99368 3.4682-1.7625 3.4682 0.68402 0 0.48859-0.28014 4.1046-0.44445 4.6917-0.57113 2.0409-2.6522 2.5615-4.5035 2.2464 3.2359 0.55073 4.0591 2.375 2.2813 4.1992-3.3763 3.4646-4.8527-0.86927-5.231-1.9798-0.0693-0.20357-0.1018-0.29881-0.10228-0.21783-4.8e-4 -0.081-0.0329 0.0143-0.10228 0.21783-0.37831 1.1105-1.8547 5.4443-5.231 1.9798-1.7778-1.8242-0.95462-3.6484 2.2813-4.1992-1.8513 0.31507-3.9324-0.2055-4.5035-2.2464-0.1643-0.58709-0.44445-4.2031-0.44445-4.6917 0-2.4466 2.1446-1.6777 3.4682-0.68402z" stroke-width=".028169"/>
 <path d="m3.4769 1.6797c1.8344 1.3772 3.8073 4.1695 4.5318 5.6679 0.72448-1.4984 2.6974-4.2907 4.5318-5.6679 1.3236-0.99368 3.4682-1.7625 3.4682 0.68402 0 0.48859-0.28014 4.1046-0.44445 4.6917-0.57113 2.0409-2.6522 2.5615-4.5035 2.2464 3.2359 0.55073 4.0591 2.375 2.2813 4.1992-3.3763 3.4646-4.8527-0.86927-5.231-1.9798-0.0693-0.20357-0.1018-0.29881-0.10228-0.21783-4.8e-4 -0.081-0.0329 0.0143-0.10228 0.21783-0.37831 1.1105-1.8547 5.4443-5.231 1.9798-1.7778-1.8242-0.95462-3.6484 2.2813-4.1992-1.8513 0.31507-3.9324-0.2055-4.5035-2.2464-0.1643-0.58709-0.44445-4.2031-0.44445-4.6917 0-2.4466 2.1446-1.6777 3.4682-0.68402z" stroke-width=".028169"/>
</svg>
